<svg xmlns="http://www.w3.org/2000/svg" width="512" height="512" viewBox="0 0 512 512" role="img" aria-label="Smart Expense Tracker icon">
  <defs>
    <linearGradient id="bg" x1="0" y1="0" x2="1" y2="1">
      <stop offset="0%" stop-color="#0f172a"/>
      <stop offset="100%" stop-color="#0e7490"/>
    </linearGradient>
    <linearGradient id="coin" x1="0" y1="0" x2="1" y2="1">
      <stop offset="0%" stop-color="#22d3ee"/>
      <stop offset="100%" stop-color="#0ea5e9"/>
    </linearGradient>
  </defs>
  <rect width="512" height="512" rx="110" fill="url(#bg)"/>
  <rect x="116" y="128" width="280" height="260" rx="42" fill="#0b1220" stroke="#67e8f9" stroke-opacity="0.45" stroke-width="12"/>
  <circle cx="256" cy="238" r="70" fill="url(#coin)"/>
  <path d="M256 191c-19 0-34 11-34 28 0 15 10 22 30 27l16 4c11 3 15 6 15 11 0 7-7 12-19 12-13 0-24-4-33-13l-18 18c11 11 24 17 37 19v18h19v-19c22-3 37-17 37-35 0-16-10-24-31-29l-16-4c-10-2-14-6-14-10 0-6 6-10 15-10 10 0 18 3 26 10l17-17c-9-9-19-14-31-16v-17h-19v17z" fill="#022c3a"/>
  <rect x="161" y="330" width="190" height="18" rx="9" fill="#22d3ee" fill-opacity="0.85"/>
</svg>
